<?xml version="1.0" standalone="no"?>
<!DOCTYPE svg PUBLIC "-//W3C//DTD SVG 20010904//EN"
 "http://www.w3.org/TR/2001/REC-SVG-20010904/DTD/svg10.dtd">
<svg version="1.0" xmlns="http://www.w3.org/2000/svg"
 width="264.000000pt" height="268.000000pt" viewBox="0 0 264.000000 268.000000"
 preserveAspectRatio="xMidYMid meet">

<g transform="translate(0.000000,268.000000) scale(0.100000,-0.100000)"
fill="#000000" stroke="none">
<path d="M0 1340 l0 -1340 1320 0 1320 0 0 1340 0 1340 -1320 0 -1320 0 0
-1340z m2548 1190 c-5 -17 -8 -37 -5 -44 3 -8 -1 -20 -9 -27 -8 -7 -13 -18
-10 -25 3 -7 -2 -18 -10 -25 -9 -7 -13 -21 -11 -30 3 -10 -2 -24 -9 -30 -8 -7
-13 -18 -10 -25 3 -7 1 -14 -4 -16 -5 -2 -11 -14 -12 -28 -2 -14 -9 -31 -16
-39 -8 -8 -11 -22 -9 -32 3 -10 -2 -24 -10 -30 -8 -7 -12 -21 -10 -31 3 -10
-2 -22 -10 -27 -10 -5 -14 -15 -10 -24 4 -10 0 -20 -10 -25 -10 -6 -14 -17
-10 -31 3 -13 -1 -24 -10 -30 -9 -4 -14 -14 -11 -22 3 -8 -2 -20 -9 -28 -8 -8
-12 -22 -10 -32 3 -10 0 -20 -5 -21 -5 -2 -11 -16 -11 -31 -1 -15 -6 -27 -10
-27 -5 0 -5 -4 -2 -10 3 -5 1 -10 -6 -10 -6 0 -9 -8 -6 -20 3 -11 1 -20 -5
-20 -5 0 -6 -4 -3 -10 3 -5 1 -10 -5 -10 -7 0 -10 -6 -7 -14 3 -8 -1 -20 -9
-27 -9 -7 -14 -23 -11 -36 3 -14 -2 -27 -11 -32 -8 -5 -12 -15 -9 -24 3 -9 -1
-21 -9 -28 -8 -7 -13 -18 -10 -25 3 -7 1 -14 -4 -16 -5 -2 -11 -14 -12 -28 -2
-14 -9 -31 -16 -39 -8 -8 -11 -22 -9 -32 3 -10 -2 -24 -10 -30 -8 -7 -12 -21
-10 -31 3 -10 1 -18 -5 -18 -5 0 -6 -4 -3 -10 3 -5 1 -10 -5 -10 -7 0 -10 -6
-7 -14 3 -8 -1 -20 -9 -27 -9 -7 -13 -21 -11 -30 3 -10 -2 -24 -10 -30 -8 -7
-12 -21 -10 -30 3 -10 -1 -23 -8 -29 -12 -10 -28 -55 -30 -85 -1 -5 -7 -21
-14 -33 -7 -13 -10 -26 -7 -30 3 -3 -1 -13 -10 -23 -9 -10 -14 -25 -11 -33 3
-8 -1 -20 -9 -27 -8 -7 -13 -18 -10 -25 3 -7 -2 -18 -10 -25 -8 -7 -13 -18
-10 -25 3 -7 0 -14 -6 -16 -5 -2 -11 -18 -12 -35 -2 -18 -9 -39 -16 -48 -7 -8
-10 -21 -7 -29 3 -8 -1 -20 -9 -27 -8 -7 -13 -18 -10 -25 3 -8 -2 -18 -11 -22
-10 -6 -14 -17 -10 -31 3 -11 1 -21 -5 -21 -5 0 -6 -4 -3 -10 3 -5 1 -10 -4
-10 -6 0 -11 -7 -11 -15 0 -8 -4 -23 -9 -33 -15 -29 -29 -65 -43 -107 -7 -22
-13 -42 -14 -43 -4 -6 -173 69 -248 110 -70 39 -113 70 -71 53 11 -5 36 -8 55
-7 26 1 31 -2 20 -9 -10 -7 -11 -9 -2 -7 25 7 7 23 -23 21 -25 -2 -27 -1 -12
8 19 11 23 29 6 29 -5 0 -7 -4 -4 -10 3 -5 0 -10 -7 -11 -7 0 -26 -2 -42 -4
-19 -3 -42 5 -70 23 -22 15 -46 29 -51 32 -40 20 -193 144 -188 153 3 6 1 7
-5 3 -17 -10 -216 169 -206 186 3 5 0 7 -7 6 -16 -4 -245 266 -281 332 -8 14
-29 50 -48 80 -49 78 -63 103 -115 210 -26 52 -50 102 -55 110 -4 9 -11 30
-15 48 -5 26 -3 32 9 32 9 0 24 4 34 9 19 9 54 22 147 53 33 12 69 24 80 29
11 4 49 17 85 29 36 11 73 25 82 30 10 6 25 10 33 10 8 0 24 5 35 10 11 6 29
15 40 20 11 6 28 10 38 10 10 0 22 4 27 8 6 5 44 19 85 32 41 13 79 27 85 32
5 4 19 8 31 8 13 0 26 5 29 10 3 6 15 10 26 10 10 0 27 4 37 9 35 18 69 31
162 61 52 17 103 35 112 40 10 6 27 10 37 10 11 0 23 5 26 10 3 6 15 10 26 10
10 0 27 4 37 9 35 18 69 31 162 61 52 17 103 35 112 40 10 6 25 10 33 10 8 0
24 5 35 10 11 6 29 15 40 20 11 6 29 10 39 10 11 0 23 5 26 10 3 6 16 10 29
10 12 0 26 4 31 8 6 5 44 19 85 32 41 13 79 27 85 32 5 4 16 8 25 8 9 0 34 9
56 20 52 26 55 25 42 -10z"/>
<path d="M2023 2094 c-15 -23 -15 -29 -2 -52 30 -53 101 -44 107 14 6 63 -71
90 -105 38z"/>
<path d="M1750 1915 c-18 -21 -3 -55 25 -55 29 0 39 14 31 46 -7 27 -37 32
-56 9z"/>
<path d="M1400 1850 c0 -13 7 -20 20 -20 13 0 20 7 20 20 0 13 -7 20 -20 20
-13 0 -20 -7 -20 -20z"/>
<path d="M1060 1747 c-55 -28 -48 -110 13 -131 78 -28 127 98 51 133 -31 14
-33 14 -64 -2z"/>
<path d="M1500 1575 c-20 -25 -8 -50 25 -50 21 0 31 5 33 18 4 21 -14 47 -33
47 -7 0 -18 -7 -25 -15z"/>
<path d="M1843 1543 c-61 -12 -86 -114 -37 -152 76 -60 179 25 134 110 -9 16
-63 52 -72 48 -2 -1 -13 -4 -25 -6z"/>
<path d="M880 1106 c0 -2 8 -10 18 -17 15 -13 16 -12 3 4 -13 16 -21 21 -21
13z"/>
<path d="M1536 1079 c-54 -42 -21 -129 49 -129 68 0 99 77 50 125 -30 30 -64
32 -99 4z"/>
<path d="M980 1000 c0 -5 10 -10 23 -10 18 0 19 2 7 10 -19 13 -30 13 -30 0z"/>
<path d="M1005 970 c3 -5 8 -10 11 -10 2 0 4 5 4 10 0 6 -5 10 -11 10 -5 0 -7
-4 -4 -10z"/>
<path d="M1042 961 c-11 -7 -11 -11 2 -23 8 -9 12 -19 8 -23 -4 -4 0 -5 8 -3
8 2 14 -3 13 -9 -2 -7 0 -12 5 -11 11 4 72 -44 67 -53 -3 -4 3 -6 12 -4 10 2
22 4 27 4 12 1 -13 30 -37 43 -14 7 -17 7 -13 -1 4 -6 2 -11 -3 -11 -6 0 -11
8 -11 18 0 24 -19 42 -38 34 -12 -4 -14 -1 -9 12 6 14 3 17 -9 12 -12 -4 -15
-2 -10 9 6 17 6 18 -12 6z m63 -51 c3 -5 1 -10 -4 -10 -6 0 -11 5 -11 10 0 6
2 10 4 10 3 0 8 -4 11 -10z m60 -50 c3 -6 -1 -7 -9 -4 -18 7 -21 14 -7 14 6 0
13 -4 16 -10z"/>
<path d="M1206 819 c-18 -17 -18 -19 -2 -25 24 -9 52 19 34 33 -9 8 -18 5 -32
-8z m34 -3 c0 -2 -7 -7 -16 -10 -8 -3 -12 -2 -9 4 6 10 25 14 25 6z"/>
<path d="M1257 792 c-15 -16 -13 -20 19 -50 19 -18 34 -27 34 -20 0 10 2 10 9
-1 5 -8 11 -9 15 -3 3 5 -1 13 -10 16 -8 3 -12 10 -9 16 4 6 11 7 17 4 7 -5 8
-2 3 5 -5 9 -10 10 -18 2 -6 -6 -18 -11 -26 -11 -14 0 -14 2 -1 11 13 9 13 10
-1 6 -9 -3 -21 -2 -28 3 -9 5 -5 9 13 14 14 3 26 11 26 16 0 16 -26 11 -43 -8z"/>
<path d="M1380 720 c0 -5 5 -10 11 -10 5 0 7 5 4 10 -3 6 -8 10 -11 10 -2 0
-4 -4 -4 -10z"/>
<path d="M1427 699 c7 -7 15 -10 18 -7 3 3 -2 9 -12 12 -14 6 -15 5 -6 -5z"/>
<path d="M1392 668 c16 -16 33 -27 36 -24 3 4 -3 12 -13 20 -10 7 -15 18 -12
23 4 6 -3 11 -17 11 -24 0 -24 -1 6 -30z"/>
<path d="M1451 673 c-12 -14 -12 -15 0 -11 8 3 19 -2 26 -11 10 -14 11 -13 6
7 -7 30 -15 33 -32 15z"/>
<path d="M1495 670 c3 -5 8 -10 11 -10 2 0 4 5 4 10 0 6 -5 10 -11 10 -5 0 -7
-4 -4 -10z"/>
<path d="M1450 630 c8 -5 20 -10 25 -10 6 0 3 5 -5 10 -8 5 -19 10 -25 10 -5
0 -3 -5 5 -10z"/>
<path d="M1643 613 c31 -5 33 -10 11 -41 -14 -21 -14 -22 10 -22 29 0 31 6 16
44 -7 20 -16 26 -37 25 l-28 -2 28 -4z"/>
<path d="M1735 570 c3 -5 8 -10 11 -10 2 0 4 5 4 10 0 6 -5 10 -11 10 -5 0 -7
-4 -4 -10z"/>
<path d="M1785 551 c29 -7 29 -7 9 -19 -12 -6 -25 -8 -29 -4 -5 4 -6 0 -2 -9
3 -9 2 -21 -1 -25 -4 -5 0 -1 10 8 17 19 34 23 41 11 2 -5 2 -3 1 4 -2 7 2 15
8 19 15 9 -12 24 -42 23 -23 -1 -22 -2 5 -8z"/>
<path d="M1692 534 c-14 -16 -5 -18 17 -5 7 5 9 11 5 14 -5 3 -15 -1 -22 -9z"/>
<path d="M1628 533 c6 -2 10 -8 8 -12 -3 -4 0 -8 7 -8 7 0 21 -4 32 -8 11 -4
5 2 -13 14 -18 12 -36 21 -40 20 -4 0 -1 -3 6 -6z"/>
<path d="M1722 521 c-11 -6 -10 -10 4 -15 20 -8 32 0 18 14 -5 5 -15 5 -22 1z"/>
<path d="M1710 485 c7 -8 16 -15 21 -15 5 0 6 7 3 15 -4 8 -13 15 -21 15 -13
0 -13 -3 -3 -15z"/>
</g>
</svg>
